<svg width="53" height="53" viewBox="0 0 53 53" fill="none" xmlns="http://www.w3.org/2000/svg">
<g clip-path="url(#clip0_28_17)">
<rect width="52.4949" height="52.4949" rx="12.0301" fill="#EE1B44"/>
<path d="M8.87714 33.6475L11.6792 18.5472C11.9375 17.1554 12.8144 15.9565 14.0625 15.2888C17.5076 13.4456 21.555 16.406 20.8421 20.2475L19.5222 27.3605C19.4385 27.8116 19.9419 28.1387 20.3201 27.8789L51.7338 6.29902C54.3952 4.4707 57.9386 6.7729 57.3495 9.94765C57.1741 10.8928 56.6305 11.7295 55.8382 12.2738L17.0216 38.9391C13.1617 41.5907 8.02273 38.2518 8.87714 33.6475Z" fill="#1E1E1E" stroke="black" stroke-width="0.465964"/>
<path d="M12.0473 33.6475L14.8494 18.5472C15.1077 17.1554 15.9846 15.9565 17.2327 15.2888C20.6778 13.4456 24.7251 16.406 24.0123 20.2475L22.6923 27.3605C22.6086 27.8116 23.1121 28.1387 23.4903 27.8789L54.9039 6.29902C57.5654 4.4707 61.1088 6.7729 60.5197 9.94765C60.3443 10.8928 59.8006 11.7295 59.0083 12.2738L20.1918 38.9391C16.3319 41.5907 11.1929 38.2518 12.0473 33.6475Z" fill="white" stroke="black" stroke-width="0.465964"/>
<path d="M14.5409 35.106L17.5876 18.6879C18.1189 15.8248 19.9229 13.3583 22.4906 11.9846C25.0943 10.5916 28.1532 12.8289 27.6144 15.7323L25.6357 26.3956L58.0741 4.11176C60.7356 2.28345 64.2789 4.58564 63.6898 7.7604C63.5144 8.7055 62.9708 9.54223 62.1785 10.0865L38.159 26.5869L20.3056 38.8514C17.5736 40.7282 13.9362 38.365 14.5409 35.106Z" fill="#9EFF00" stroke="black" stroke-width="0.465964"/>
</g>
<defs>
<clipPath id="clip0_28_17">
<rect width="52.4949" height="52.4949" rx="12.0301" fill="white"/>
</clipPath>
</defs>
</svg>
